<svg width="21" height="17" viewBox="0 0 21 17" fill="none" xmlns="http://www.w3.org/2000/svg">
<path fill-rule="evenodd" clip-rule="evenodd" d="M2 0C0.895431 0 0 0.89543 0 2V15C0 16.1046 0.89543 17 2 17H19C20.1046 17 21 16.1046 21 15V2C21 0.895431 20.1046 0 19 0H2ZM9.248 9.4C8.96 9.016 8.568 8.768 8.072 8.656C8.504 8.536 8.848 8.312 9.104 7.984C9.368 7.648 9.5 7.232 9.5 6.736C9.5 6.04 9.252 5.5 8.756 5.116C8.268 4.732 7.592 4.54 6.728 4.54H2.672V13H6.86C7.756 13 8.452 12.796 8.948 12.388C9.444 11.98 9.692 11.416 9.692 10.696C9.692 10.208 9.544 9.776 9.248 9.4ZM6.212 7.9H5.024V6.412H6.212C6.804 6.412 7.1 6.664 7.1 7.168C7.1 7.656 6.804 7.9 6.212 7.9ZM7.28 10.36C7.28 10.856 6.984 11.104 6.392 11.104H5.024V9.568H6.38C6.668 9.568 6.888 9.636 7.04 9.772C7.2 9.908 7.28 10.104 7.28 10.36ZM18.6068 8.764C18.8468 8.34 18.9668 7.872 18.9668 7.36C18.9668 6.808 18.8468 6.32 18.6068 5.896C18.3668 5.472 18.0068 5.14 17.5268 4.9C17.0548 4.66 16.4788 4.54 15.7988 4.54H12.2828V13H14.6348V10.144H15.7988C16.4868 10.144 17.0668 10.02 17.5388 9.772C18.0188 9.516 18.3748 9.18 18.6068 8.764ZM16.5668 7.36C16.5668 7.968 16.2348 8.272 15.5708 8.272H14.6348V6.436H15.5708C16.2348 6.436 16.5668 6.744 16.5668 7.36Z" fill="url(#paint0_linear_307_13076)"/>
<defs>
<linearGradient id="paint0_linear_307_13076" x1="3" y1="7.15789" x2="19" y2="7.15789" gradientUnits="userSpaceOnUse">
<stop stop-color="#DE691B"/>
<stop offset="1" stop-color="#AC2A2A"/>
</linearGradient>
</defs>
</svg>
